<svg width="2315" height="2315" xmlns="http://www.w3.org/2000/svg" xmlns:xlink="http://www.w3.org/1999/xlink" xml:space="preserve" overflow="hidden"><defs><clipPath id="clip0"><rect x="1040" y="82" width="2315" height="2315"/></clipPath></defs><g clip-path="url(#clip0)" transform="translate(-1040 -82)"><path d="M1045 1238C1045 600.111 1562.11 82.9998 2200 82.9998 2837.89 82.9998 3355 600.111 3355 1238 3355 1875.89 2837.89 2393 2200 2393 1562.11 2393 1045 1875.89 1045 1238Z" fill="#A9D18E" fill-rule="evenodd" fill-opacity="1"/><path d="M1204 1238C1204 691.238 1647.24 248 2194 248 2740.76 248 3184 691.238 3184 1238 3184 1784.76 2740.76 2228 2194 2228 1647.24 2228 1204 1784.76 1204 1238Z" fill="#C5E0B4" fill-rule="evenodd" fill-opacity="1"/><path d="M2035 908C2126.13 908 2200 981.873 2200 1073 2200 1128 2200 1183 2200 1238 2145 1238 2090 1238 2035 1238 1943.87 1238 1870 1164.13 1870 1073 1870 981.873 1943.87 908 2035 908Z" stroke="#C5E0B4" stroke-width="45.8333" stroke-linecap="butt" stroke-linejoin="miter" stroke-miterlimit="8" stroke-opacity="1" fill="#FFFFFF" fill-rule="evenodd" fill-opacity="1"/><path d="M0 165C-4.20134e-14 73.873 73.873 0 165 0 220 0 275 0 330 0 330 55 330 110 330 165 330 256.127 256.127 330 165 330 73.873 330 2.10067e-14 256.127 0 165Z" stroke="#C5E0B4" stroke-width="45.8333" stroke-linecap="butt" stroke-linejoin="miter" stroke-miterlimit="8" stroke-opacity="1" fill="#FFFFFF" fill-rule="evenodd" fill-opacity="1" transform="matrix(1.83697e-16 1 1 -1.83697e-16 2200 908)"/><path d="M1870 1403C1870 1311.87 1943.87 1238 2035 1238 2090 1238 2145 1238 2200 1238 2200 1293 2200 1348 2200 1403 2200 1494.13 2126.13 1568 2035 1568 1943.87 1568 1870 1494.13 1870 1403Z" stroke="#C5E0B4" stroke-width="45.8333" stroke-linecap="butt" stroke-linejoin="miter" stroke-miterlimit="8" stroke-opacity="1" fill="#FFFFFF" fill-rule="evenodd" fill-opacity="1"/><path d="M0 165C-4.20134e-14 73.873 73.873 0 165 0 220 0 275 0 330 0 330 55 330 110 330 165 330 256.127 256.127 330 165 330 73.873 330 2.10067e-14 256.127 0 165Z" stroke="#C5E0B4" stroke-width="45.8333" stroke-linecap="butt" stroke-linejoin="miter" stroke-miterlimit="8" stroke-opacity="1" fill="#FFFFFF" fill-rule="evenodd" fill-opacity="1" transform="matrix(-1 0 0 1 2530 1238)"/></g></svg>